HIERARCHY
ROOT Hips
{
 OFFSET 0.000000 0.000000 0.000000
 CHANNELS 6 Xposition Yposition Zposition Yrotation Xrotation Zrotation
 JOINT Chest
 {
  OFFSET 0.000000 9.585900 0.002600
  CHANNELS 3 Yrotation Xrotation Zrotation
  JOINT Chest2
  {
   OFFSET 0.000000 9.601200 -0.005300
   CHANNELS 3 Yrotation Xrotation Zrotation
   JOINT Chest3
   {
    OFFSET 0.000000 9.561800 0.000000
    CHANNELS 3 Yrotation Xrotation Zrotation
    JOINT Chest4
    {
     OFFSET 0.000000 9.552100 0.000000
     CHANNELS 3 Yrotation Xrotation Zrotation
     JOINT Neck
     {
      OFFSET 0.000000 14.453000 0.000000
      CHANNELS 3 Yrotation Xrotation Zrotation
      JOINT Head
      {
       OFFSET 0.000000 8.936500 -0.011300
       CHANNELS 3 Yrotation Xrotation Zrotation
       End Site
       {
        OFFSET 0.000000 17.073600 -0.006000
       }
      }
     }
     JOINT RightCollar
     {
      OFFSET -2.921100 9.558500 0.000000
      CHANNELS 3 Yrotation Xrotation Zrotation
      JOINT RightShoulder
      {
       OFFSET -13.519700 0.000000 0.000000
       CHANNELS 3 Yrotation Xrotation Zrotation
       JOINT RightElbow
       {
        OFFSET 0.000000 -29.696600 0.000000
        CHANNELS 3 Yrotation Xrotation Zrotation
        JOINT RightWrist
        {
         OFFSET 0.000000 -24.004700 0.000000
         CHANNELS 3 Yrotation Xrotation Zrotation
         End Site
         {
          OFFSET 0.000000 -17.728500 0.000000
         }
        }
       }
      }
     }
     JOINT LeftCollar
     {
      OFFSET 2.921100 9.558500 0.000000
      CHANNELS 3 Yrotation Xrotation Zrotation
      JOINT LeftShoulder
      {
       OFFSET 13.519700 0.000000 0.000000
       CHANNELS 3 Yrotation Xrotation Zrotation
       JOINT LeftElbow
       {
        OFFSET 0.000000 -29.696600 0.000000
        CHANNELS 3 Yrotation Xrotation Zrotation
        JOINT LeftWrist
        {
         OFFSET 0.000000 -24.004700 0.000000
         CHANNELS 3 Yrotation Xrotation Zrotation
         End Site
         {
          OFFSET 0.000000 -17.728500 0.000000
         }
        }
       }
      }
     }
    }
   }
  }
 }
 JOINT RightHip
 {
  OFFSET -7.771700 -0.012900 -0.001300
  CHANNELS 3 Yrotation Xrotation Zrotation
  JOINT RightKnee
  {
   OFFSET 0.000000 -40.869800 0.001200
   CHANNELS 3 Yrotation Xrotation Zrotation
   JOINT RightAnkle
   {
    OFFSET 0.000000 -39.717900 0.002100
    CHANNELS 3 Yrotation Xrotation Zrotation
    JOINT RightToe
    {
     OFFSET 0.000000 -4.965400 11.033500
     CHANNELS 3 Yrotation Xrotation Zrotation
     End Site
     {
      OFFSET 0.000000 -1.423100 5.872300
     }
    }
   }
  }
 }
 JOINT LeftHip
 {
  OFFSET 7.771700 -0.012900 -0.001300
  CHANNELS 3 Yrotation Xrotation Zrotation
  JOINT LeftKnee
  {
   OFFSET 0.000000 -40.869800 0.001200
   CHANNELS 3 Yrotation Xrotation Zrotation
   JOINT LeftAnkle
   {
    OFFSET 0.000000 -39.717900 0.002100
    CHANNELS 3 Yrotation Xrotation Zrotation
    JOINT LeftToe
    {
     OFFSET 0.000000 -4.965400 11.033500
     CHANNELS 3 Yrotation Xrotation Zrotation
     End Site
     {
      OFFSET 0.000000 -1.423100 5.872300
     }
    }
   }
  }
 }
}
MOTION
Frames: 14
Frame Time: 0.008333
-20.029676 59.116906 72.114993 171.218540 -34.129662 0.885774 4.478612 19.562563 5.380414 0.454973 2.511557 0.596118 0.759231 4.110080 0.987461 3.633107 16.827960 4.472295 1.919925 15.927647 -1.399288 4.072932 -6.139349 -3.290477 2.253401 -3.558559 -1.634985 6.578320 -10.829351 -17.325435 3.357515 -86.517636 33.524399 15.289947 -6.489363 -33.973682 -5.714188 -2.861707 -3.461385 10.491222 -4.269222 1.428044 -39.745786 -83.367800 3.713343 -9.284862 10.860614 -6.554859 13.817201 -36.918527 -5.144817 -5.038179 66.142712 -4.371795 4.786545 9.571709 7.423853 0.003675 -0.133835 -0.059037 -2.394016 -42.550320 2.637922 26.834118 58.735510 23.888873 -8.238308 37.061790 3.479558 -0.416465 -6.300538 -5.013582
-20.030131 59.120099 72.112083 171.171936 -34.141567 0.930304 4.488434 19.605777 5.327567 0.435936 2.543505 0.561637 0.783084 4.081821 1.015747 3.651804 16.815531 4.478464 1.889809 15.941578 -1.370969 4.083454 -6.163062 -3.257312 2.267592 -3.558157 -1.641042 6.693182 -10.890410 -17.374791 2.893951 -86.561574 33.964129 15.286386 -6.510675 -33.962684 -5.719121 -2.873976 -3.460836 10.431830 -4.283811 1.399711 -39.750296 -83.481097 3.667836 -9.296310 10.850598 -6.518213 13.832040 -36.921362 -5.136498 -5.063816 66.153813 -4.436833 4.802781 9.614578 7.463241 0.011575 -0.144865 -0.071346 -2.420533 -42.593097 2.670844 26.879408 58.715028 23.917077 -8.227378 37.356874 3.528604 -0.454839 -5.969392 -5.085364
-20.017933 59.117565 72.119236 171.200611 -34.090093 0.852390 4.459705 19.594167 5.332907 0.456857 2.515889 0.591327 0.773066 4.100291 0.998796 3.668215 16.801518 4.486974 1.884032 15.937823 -1.348363 4.000374 -6.158648 -3.124117 2.279178 -3.558751 -1.648840 6.805595 -10.953950 -17.420997 2.329329 -86.603592 34.512951 15.283537 -6.535824 -33.951568 -5.723539 -2.887138 -3.460110 10.369157 -4.295598 1.374216 -39.679866 -83.592900 3.546249 -9.308384 10.840243 -6.480316 13.741997 -37.000311 -5.043720 -5.125015 66.151565 -4.520479 4.824191 9.647986 7.476550 0.001504 -0.113734 -0.056116 -2.622395 -42.771594 2.843817 26.991370 58.775511 23.998367 -8.185457 37.739326 3.586180 -0.498783 -5.770714 -5.151510
-20.009856 59.118431 72.120872 171.214733 -34.069082 0.813459 4.450121 19.585540 5.343767 0.457071 2.516805 0.590263 0.762624 4.118232 0.977907 3.669403 16.808685 4.472330 1.901776 15.913574 -1.303304 3.915004 -6.153531 -2.994523 2.302307 -3.579962 -1.635434 6.863815 -10.998656 -17.430425 2.150581 -86.679146 34.726455 15.279113 -6.558415 -33.942593 -5.775598 -2.900275 -3.499556 10.365451 -4.335305 1.415158 -39.572814 -83.707139 3.385354 -9.316574 10.830698 -6.440336 13.692903 -37.044695 -4.992659 -5.150169 66.165717 -4.558944 4.831566 9.664664 7.484260 -0.000763 -0.110540 -0.056319 -2.668559 -42.878965 2.898039 26.987800 58.799182 24.039306 -8.161962 38.069443 3.628980 -0.532607 -5.567025 -5.212568
-20.005748 59.122021 72.117991 171.182805 -34.072527 0.827214 4.456842 19.633976 5.292607 0.457303 2.518945 0.587247 0.771170 4.103755 0.991620 3.667674 16.814752 4.457315 1.836323 15.943770 -1.254437 3.933295 -6.200408 -2.930628 2.322508 -3.600818 -1.627180 6.986754 -11.077546 -17.482040 1.198524 -86.703086 35.668921 15.271381 -6.577400 -33.937638 -5.780672 -2.922793 -3.500510 10.340440 -4.350758 1.426698 -39.376817 -83.826761 3.114557 -9.322326 10.819702 -6.399486 13.709601 -37.042252 -4.980971 -5.155338 66.160675 -4.567680 4.833774 9.676295 7.487084 -0.001077 -0.110992 -0.056305 -2.605047 -42.943667 2.889438 26.955599 58.832477 24.064235 -8.124997 38.297925 3.699668 -0.574838 -5.339022 -5.278528
-19.999581 59.121745 72.121278 171.174630 -34.032692 0.807449 4.466270 19.608555 5.296362 0.445657 2.544935 0.560889 0.776671 4.097784 0.995758 3.641469 16.854224 4.404754 1.885429 15.886473 -1.180258 3.866060 -6.193976 -2.836535 2.361528 -3.662612 -1.591411 7.092227 -11.154315 -17.522598 0.159459 -86.727189 36.715560 15.265568 -6.597372 -33.935791 -5.766605 -2.979463 -3.465473 10.356023 -4.368304 1.460160 -39.001211 -83.954661 2.624460 -9.327195 10.809137 -6.358563 13.697662 -37.100372 -4.956064 -5.154242 66.165736 -4.569721 4.833747 9.711396 7.495825 -0.002606 -0.110728 -0.055693 -2.594222 -43.018880 2.911894 26.919163 58.791415 24.095595 -8.143490 38.567321 3.713104 -0.598716 -5.164801 -5.334893
-19.993406 59.122370 72.123149 171.191307 -34.002813 0.771216 4.448403 19.608955 5.286161 0.444612 2.556048 0.550710 0.777471 4.089271 0.999447 3.631047 16.871928 4.375711 1.868428 15.881070 -1.128301 3.839968 -6.213000 -2.760279 2.387786 -3.701658 -1.578460 7.159951 -11.217889 -17.542512 -0.789530 -86.767712 37.701070 15.263695 -6.621369 -33.932021 -5.766629 -3.016989 -3.451531 10.316667 -4.374417 1.459722 -38.837996 -84.060363 2.405752 -9.329666 10.801184 -6.315771 13.682879 -37.146169 -4.940103 -5.163167 66.172880 -4.562916 4.837126 9.746650 7.504108 0.000234 -0.085418 -0.042386 -2.534345 -43.116240 2.899982 26.854748 58.782320 24.152270 -8.181881 38.850008 3.708428 -0.607337 -5.055078 -5.381339
-19.991148 59.125250 72.120561 171.180252 -34.000853 0.772906 4.443861 19.675467 5.223792 0.455906 2.522147 0.579294 0.776010 4.092612 0.994947 3.624449 16.873902 4.360171 1.837676 15.888035 -1.089378 3.810662 -6.230304 -2.686532 2.407022 -3.726199 -1.576583 7.215883 -11.279074 -17.559949 -1.812315 -86.811330 38.766642 15.261000 -6.646387 -33.926836 -5.774402 -3.043937 -3.448484 10.283187 -4.377390 1.454790 -38.671140 -84.159830 2.180970 -9.328930 10.794099 -6.271340 13.697969 -37.160059 -4.942407 -5.153240 66.184684 -4.545553 4.838872 9.778427 7.515730 -0.000310 -0.102638 -0.048502 -2.464912 -43.159718 2.876804 26.809655 58.789870 24.177093 -8.150905 39.042392 3.766473 -0.641244 -4.934036 -5.436530
-19.990239 59.125906 72.119414 171.172321 -33.988495 0.774269 4.443271 19.694344 5.192745 0.454790 2.522253 0.577005 0.776241 4.096880 0.991634 3.613481 16.873206 4.343613 1.821033 15.887207 -1.052307 3.766507 -6.234114 -2.611607 2.429800 -3.742821 -1.575829 7.263084 -11.336568 -17.572709 -2.921294 -86.859877 39.920387 15.257122 -6.669835 -33.924950 -5.759154 -3.069676 -3.426541 10.234313 -4.367391 1.433911 -38.467595 -84.261340 1.922116 -9.328376 10.785662 -6.224791 13.727438 -37.186248 -4.962665 -5.074853 66.201489 -4.451953 4.817972 9.815701 7.524298 -0.004209 -0.124474 -0.052687 -2.417760 -43.200173 2.862115 26.780160 58.784637 24.201632 -8.115961 39.210659 3.822887 -0.676514 -4.826023 -5.488391
-19.980757 59.116295 72.130854 171.232355 -33.897880 0.670490 4.412603 19.612942 5.242925 0.446556 2.535301 0.560735 0.775917 4.100157 0.985901 3.602420 16.871212 4.329677 1.804512 15.888937 -1.017992 3.723487 -6.232962 -2.541824 2.455282 -3.751430 -1.577831 7.303966 -11.389080 -17.579978 -4.170440 -86.911514 41.215930 15.252538 -6.693702 -33.928435 -5.741895 -3.089172 -3.407792 10.139842 -4.338197 1.373611 -38.651138 -84.347325 2.102702 -9.330949 10.773875 -6.176494 13.692493 -37.316294 -4.938088 -5.069218 66.217852 -4.404170 4.829170 9.895179 7.537880 -0.004536 -0.129856 -0.046232 -2.429249 -43.360892 2.902372 26.795137 58.750824 24.357979 -8.211448 39.481678 3.775352 -0.678992 -4.807108 -5.521435
-19.978505 59.107190 72.133262 171.245383 -33.865517 0.639765 4.404481 19.593069 5.248689 0.437344 2.547007 0.546400 0.774628 4.101728 0.979186 3.592434 16.868007 4.317782 1.787584 15.893049 -0.987191 3.680846 -6.227291 -2.478365 2.487201 -3.764844 -1.564531 7.340002 -11.422904 -17.601508 -5.536182 -86.962418 42.628770 15.242071 -6.653799 -33.955347 -5.737065 -3.096796 -3.405812 10.095138 -4.326159 1.348582 -38.617141 -84.441221 2.027827 -9.334814 10.759510 -6.126650 13.683574 -37.367954 -4.930468 -5.051846 66.229367 -4.375795 4.832827 9.926890 7.544495 -0.004378 -0.126502 -0.043395 -2.437848 -43.441740 2.917878 26.829150 58.750987 24.449110 -8.207244 39.653557 3.798327 -0.700256 -4.750068 -5.563370
-19.977097 59.090963 72.134655 171.252801 -33.841466 0.615507 4.393865 19.594405 5.237494 0.443126 2.533500 0.559172 0.763959 4.112443 0.961165 3.581735 16.866553 4.305316 1.770265 15.897942 -0.958879 3.638238 -6.220045 -2.419307 2.520200 -3.774629 -1.553706 7.357601 -11.446260 -17.602709 -6.710664 -87.022920 43.858558 15.242456 -6.707432 -33.948622 -5.725936 -3.096978 -3.407940 10.064119 -4.322583 1.335056 -38.472683 -84.537173 1.821399 -9.337197 10.746606 -6.070391 13.678939 -37.415640 -4.923806 -5.048664 66.247365 -4.364039 4.841867 9.952204 7.553438 -0.004265 -0.119760 -0.041408 -2.471957 -43.492506 2.946476 26.864956 58.739007 24.513854 -8.189979 39.809448 3.825678 -0.720463 -4.696394 -5.605165
-19.976295 59.064903 72.134989 171.261933 -33.826235 0.594526 4.368522 19.620854 5.207895 0.461440 2.505094 0.583081 0.751818 4.122703 0.944888 3.581935 16.859484 4.301236 1.741677 15.907042 -0.939638 3.595761 -6.212840 -2.361635 2.535269 -3.738062 -1.599650 7.373111 -11.516213 -17.558997 -7.954287 -87.079993 45.152366 15.242538 -6.759068 -33.936814 -5.726949 -3.092049 -3.418354 10.039603 -4.317173 1.324215 -38.301803 -84.634490 1.585840 -9.339369 10.736314 -6.008730 13.690712 -37.462784 -4.933081 -5.055149 66.280078 -4.348825 4.852450 9.971238 7.561484 -0.004519 -0.112293 -0.039463 -2.500300 -43.512520 2.969802 26.862546 58.717642 24.537811 -8.189627 39.903505 3.820860 -0.723812 -4.595327 -5.630717
-19.961532 59.021873 72.144384 171.292529 -33.763031 0.473453 4.369528 19.564654 5.296785 0.449869 2.517584 0.568008 0.732412 4.133990 0.917436 3.604552 16.838751 4.309626 1.722966 15.911983 -0.912356 3.551058 -6.205425 -2.304012 2.560584 -3.727482 -1.604071 7.437384 -11.550603 -17.600737 -10.145387 -87.118156 47.348283 15.236410 -6.779557 -33.936009 -5.722168 -3.082994 -3.419715 10.016704 -4.314952 1.314432 -38.103528 -84.731293 1.323237 -9.341135 10.727617 -5.947982 13.611169 -37.598143 -4.827889 -5.074826 66.331388 -4.356190 4.857447 9.969867 7.557809 -0.004483 -0.085047 -0.035533 -2.759570 -43.623941 3.179673 27.005353 58.734152 24.635799 -8.128508 40.130853 3.879418 -0.761228 -4.636898 -5.686415
